<svg xmlns="http://www.0000/svg" viewBox="0 0 512 512" fill="none">
  <path d="M256 48C141.1 48 48 141.1 48 256s93.1 208 208 208 208-93.1 208-208S370.9 48 256 48z" fill="transparent"/>
  <path d="M344 184c-12-16-32-24-52-24s-40 8-52 24c-8 10.7-12 24-12 36s4 25.3 12 36c12 16 32 24 52 24s40-8 52-24c8-10.7 12-24 12-36s-4-25.3-12-36zM220 280c-12-16-32-24-52-24s-40 8-52 24c-8 10.7-12 24-12 36s4 25.3 12 36c12 16 32 24 52 24s40-8 52-24c8-10.7 12-24 12-36s-4-25.3-12-36z" fill="#007aff"/>
  <path d="M256 400c-35.3 0-64-28.7-64-64 0-11.8 3.2-22.8 8.8-32h110.4c5.6 9.2 8.8 20.2 8.8 32 0 35.3-28.7 64-64 64z" fill="#007aff"/>
</svg>